# xmcd
#
# Track frame offsets:
#	150
#	18067
#	38305
#	57557
#	77662
#	97197
#
# Disc length: 1524
#
# Revision: 3
# Processed by: cddbd v1.5.1PL0 Copyright (c) Steve Scherf et al.
# Submitted via: DiscPlay 4.0.4
# Normalized: r1:DSETVAR1,TDELIM( - ),TSWAP
#
DISCID=3c05f206
DTITLE=Various Artist - Warner's Most Wanted 2
DYEAR=1900
DGENRE=
TTITLE0=Everything but the girl - Driving
TTITLE1=Tracy Chapman - Give me one reason
TTITLE2=Hootie and the blowfish - Hold my hand
TTITLE3=Donna Lewis - Simone
TTITLE4=Simply Red - Never never love
TTITLE5=Chicago - You're the inspiration
EXTD=
EXTT0=
EXTT1=
EXTT2=
EXTT3=
EXTT4=
EXTT5=
PLAYORDER=
